<?xml version="1.0" encoding="UTF-8" standalone="no"?><!DOCTYPE svg PUBLIC "-//W3C//DTD SVG 1.1//EN" "http://www.w3.org/Graphics/SVG/1.1/DTD/svg11.dtd"><svg width="100%" height="100%" viewBox="0 0 200 200" version="1.1" xmlns="http://www.w3.org/2000/svg" xmlns:xlink="http://www.w3.org/1999/xlink" xml:space="preserve" xmlns:serif="http://www.serif.com/" style="fill-rule:evenodd;clip-rule:evenodd;stroke-linecap:round;stroke-linejoin:round;stroke-miterlimit:1.5;"><path d="M190.98,44.944c0,-5.787 -4.699,-10.486 -10.486,-10.486l-160.988,0c-5.787,0 -10.486,4.699 -10.486,10.486l0,110.112c0,5.787 4.699,10.486 10.486,10.486l160.988,0c5.787,0 10.486,-4.699 10.486,-10.486l0,-110.112Z" style="fill:#101010;"/><g><circle cx="21.885" cy="45.88" r="4.112" style="fill:#e7623d;"/><circle cx="34.271" cy="45.88" r="4.112" style="fill:#e7b13d;"/><circle cx="46.657" cy="45.88" r="4.112" style="fill:#a9e73d;"/></g><g><path d="M171.501,138.818l-6.858,0c0,0 -0.685,-3.573 0.809,-5.022c1.819,-1.765 8.196,-1.693 10.66,-0.664c2.062,0.861 3.172,1.577 2.434,9.893c0,0 -0.262,3.898 -5.828,3.228c0,0 -7.084,-0.615 -8.215,1.455c0,0 -1.2,0.993 -0.823,6.02c0,0 -4.478,1.129 -5.86,-2.535c0,0 -3.042,-11.218 4.006,-11.36l9.675,-0.007l0,-1.008Zm-3.895,-4.346c0.735,0 1.332,0.597 1.332,1.332c0,0.734 -0.597,1.331 -1.332,1.331c-0.735,0 -1.331,-0.597 -1.331,-1.331c0,-0.735 0.596,-1.332 1.331,-1.332Z" style="fill:#3775a8;"/><path d="M171.939,154.69l6.858,0c0,0 0.685,3.572 -0.809,5.022c-1.819,1.765 -8.196,1.693 -10.66,0.664c-2.062,-0.862 -3.172,-1.578 -2.434,-9.893c0,0 0.262,-3.899 5.829,-3.228c0,0 7.083,0.615 8.214,-1.456c0,0 1.2,-0.992 0.823,-6.02c0,0 4.478,-1.128 5.861,2.536c0,0 3.041,11.217 -4.006,11.359l-9.676,0.008l0,1.008Zm3.895,4.345c-0.735,0 -1.331,-0.596 -1.331,-1.331c0,-0.735 0.596,-1.331 1.331,-1.331c0.735,0 1.331,0.596 1.331,1.331c0,0.735 -0.596,1.331 -1.331,1.331Z" style="fill:#ffcf3f;"/></g><g><path d="M24.827,74.947l0,1.769c0.246,-0.035 0.438,-0.13 0.575,-0.284c0.136,-0.154 0.205,-0.35 0.205,-0.589c0,-0.242 -0.068,-0.44 -0.202,-0.594c-0.135,-0.155 -0.328,-0.255 -0.578,-0.302Zm-0.826,-1.694l0,-1.658c-0.242,0.031 -0.425,0.113 -0.548,0.243c-0.123,0.131 -0.184,0.31 -0.184,0.537c0,0.222 0.061,0.408 0.184,0.556c0.123,0.149 0.306,0.256 0.548,0.322Zm0.826,6.551l-0.826,0l-0.006,-1.763c-0.34,-0.012 -0.695,-0.063 -1.066,-0.153c-0.371,-0.09 -0.758,-0.219 -1.16,-0.387l0,-1.535c0.402,0.239 0.792,0.422 1.169,0.551c0.377,0.129 0.731,0.195 1.063,0.199l0,-1.927c-0.769,-0.153 -1.342,-0.415 -1.717,-0.788c-0.375,-0.374 -0.562,-0.867 -0.562,-1.48c0,-0.652 0.199,-1.172 0.598,-1.559c0.398,-0.386 0.959,-0.603 1.681,-0.65l0,-1.389l0.826,0l0.006,1.389c0.278,0.016 0.566,0.051 0.864,0.106c0.299,0.054 0.605,0.13 0.917,0.228l0,1.5c-0.242,-0.156 -0.511,-0.281 -0.808,-0.375c-0.297,-0.094 -0.623,-0.152 -0.979,-0.176l0,1.799c0.77,0.121 1.351,0.384 1.744,0.788c0.392,0.404 0.588,0.943 0.588,1.614c0,0.641 -0.212,1.166 -0.635,1.577c-0.424,0.41 -0.988,0.632 -1.691,0.668l-0.006,1.763Z" style="fill:#fff;fill-rule:nonzero;"/><path d="M37.8,77.115l0,3.422l-1.711,0l0,-9.059l1.711,0l0,0.984c0.18,-0.378 0.416,-0.664 0.709,-0.855c0.293,-0.191 0.637,-0.287 1.031,-0.287c0.75,0 1.332,0.301 1.746,0.902c0.414,0.602 0.621,1.449 0.621,2.543c0,1.11 -0.21,1.961 -0.629,2.555c-0.42,0.594 -1.019,0.89 -1.796,0.89c-0.352,0 -0.667,-0.09 -0.947,-0.272c-0.279,-0.182 -0.524,-0.456 -0.735,-0.823Zm2.391,-2.362c0,-0.632 -0.106,-1.128 -0.317,-1.488c-0.211,-0.359 -0.502,-0.539 -0.873,-0.539c-0.371,0 -0.664,0.18 -0.879,0.539c-0.215,0.36 -0.322,0.856 -0.322,1.488c0,0.633 0.107,1.129 0.322,1.489c0.215,0.359 0.508,0.539 0.879,0.539c0.371,0 0.662,-0.18 0.873,-0.539c0.211,-0.36 0.317,-0.856 0.317,-1.489Z" style="fill:#fff;fill-rule:nonzero;"/><path d="M46.601,78.75c-0.231,0.617 -0.507,1.067 -0.829,1.35c-0.323,0.283 -0.714,0.425 -1.175,0.425l-1.418,0l0,-1.307l0.697,0c0.352,0 0.61,-0.059 0.774,-0.178c0.164,-0.12 0.33,-0.396 0.498,-0.83l0.129,-0.351l-2.497,-6.381l1.805,0l1.5,4.26l1.436,-4.26l1.804,0l-2.724,7.272Z" style="fill:#fff;fill-rule:nonzero;"/><path d="M55.876,77.707c-0.289,0.168 -0.599,0.294 -0.931,0.378c-0.332,0.083 -0.69,0.125 -1.073,0.125c-1.011,0 -1.802,-0.304 -2.373,-0.914c-0.57,-0.609 -0.855,-1.453 -0.855,-2.531c0,-1.082 0.287,-1.929 0.861,-2.54c0.574,-0.611 1.367,-0.917 2.379,-0.917c0.352,0 0.69,0.041 1.017,0.123c0.326,0.082 0.651,0.209 0.975,0.381l0,1.57c-0.25,-0.214 -0.524,-0.38 -0.823,-0.495c-0.299,-0.115 -0.608,-0.173 -0.929,-0.173c-0.558,0 -0.988,0.178 -1.289,0.534c-0.301,0.355 -0.451,0.861 -0.451,1.517c0,0.656 0.15,1.16 0.451,1.512c0.301,0.351 0.731,0.527 1.289,0.527c0.332,0 0.643,-0.055 0.932,-0.167c0.289,-0.111 0.562,-0.28 0.82,-0.507l0,1.577Z" style="fill:#fff;fill-rule:nonzero;"/><path d="M60.986,74.959c-0.641,0 -1.088,0.082 -1.342,0.246c-0.254,0.164 -0.381,0.445 -0.381,0.843c0,0.297 0.088,0.534 0.264,0.709c0.175,0.176 0.414,0.264 0.714,0.264c0.454,0 0.805,-0.171 1.055,-0.513c0.25,-0.341 0.375,-0.819 0.375,-1.432l0,-0.117l-0.685,0Zm2.39,-0.663l0,3.745l-1.705,0l0,-0.733c-0.207,0.289 -0.473,0.512 -0.797,0.668c-0.324,0.156 -0.681,0.234 -1.072,0.234c-0.746,0 -1.327,-0.197 -1.743,-0.591c-0.416,-0.395 -0.624,-0.946 -0.624,-1.653c0,-0.765 0.248,-1.331 0.744,-1.696c0.496,-0.365 1.264,-0.548 2.303,-0.548l1.189,0l0,-0.287c0,-0.277 -0.1,-0.487 -0.302,-0.63c-0.201,-0.142 -0.497,-0.214 -0.887,-0.214c-0.41,0 -0.808,0.052 -1.193,0.156c-0.384,0.103 -0.786,0.268 -1.204,0.495l0,-1.465c0.379,-0.156 0.764,-0.272 1.154,-0.346c0.391,-0.074 0.805,-0.111 1.243,-0.111c1.066,0 1.815,0.217 2.247,0.65c0.431,0.434 0.647,1.209 0.647,2.326Z" style="fill:#fff;fill-rule:nonzero;"/><path d="M66.376,75.304l0,-5.062l-1.74,0l0,-1.319l3.457,0l0,6.381c0,0.516 0.08,0.881 0.24,1.096c0.16,0.215 0.432,0.322 0.815,0.322l1.371,0l0,1.319l-1.852,0c-0.816,0 -1.402,-0.211 -1.758,-0.633c-0.355,-0.422 -0.533,-1.123 -0.533,-2.104Z" style="fill:#fff;fill-rule:nonzero;"/><path d="M77.55,77.707c-0.289,0.168 -0.6,0.294 -0.932,0.378c-0.332,0.083 -0.689,0.125 -1.072,0.125c-1.012,0 -1.803,-0.304 -2.373,-0.914c-0.57,-0.609 -0.855,-1.453 -0.855,-2.531c0,-1.082 0.287,-1.929 0.861,-2.54c0.574,-0.611 1.367,-0.917 2.379,-0.917c0.351,0 0.69,0.041 1.016,0.123c0.327,0.082 0.652,0.209 0.976,0.381l0,1.57c-0.25,-0.214 -0.524,-0.38 -0.823,-0.495c-0.299,-0.115 -0.609,-0.173 -0.929,-0.173c-0.559,0 -0.988,0.178 -1.289,0.534c-0.301,0.355 -0.451,0.861 -0.451,1.517c0,0.656 0.15,1.16 0.451,1.512c0.301,0.351 0.73,0.527 1.289,0.527c0.332,0 0.643,-0.055 0.932,-0.167c0.289,-0.111 0.562,-0.28 0.82,-0.507l0,1.577Z" style="fill:#fff;fill-rule:nonzero;"/><rect x="81.189" y="75.89" width="1.951" height="2.15" style="fill:#fff;fill-rule:nonzero;"/><path d="M88.372,77.115l0,3.422l-1.711,0l0,-9.059l1.711,0l0,0.984c0.18,-0.378 0.416,-0.664 0.709,-0.855c0.293,-0.191 0.637,-0.287 1.032,-0.287c0.75,0 1.332,0.301 1.746,0.902c0.414,0.602 0.621,1.449 0.621,2.543c0,1.11 -0.21,1.961 -0.63,2.555c-0.42,0.594 -1.019,0.89 -1.796,0.89c-0.352,0 -0.667,-0.09 -0.946,-0.272c-0.28,-0.182 -0.525,-0.456 -0.736,-0.823Zm2.391,-2.362c0,-0.632 -0.106,-1.128 -0.316,-1.488c-0.211,-0.359 -0.502,-0.539 -0.874,-0.539c-0.371,0 -0.664,0.18 -0.878,0.539c-0.215,0.36 -0.323,0.856 -0.323,1.488c0,0.633 0.108,1.129 0.323,1.489c0.214,0.359 0.507,0.539 0.878,0.539c0.372,0 0.663,-0.18 0.874,-0.539c0.21,-0.36 0.316,-0.856 0.316,-1.489Z" style="fill:#fff;fill-rule:nonzero;"/><path d="M97.173,78.75c-0.23,0.617 -0.507,1.067 -0.829,1.35c-0.322,0.283 -0.714,0.425 -1.175,0.425l-1.418,0l0,-1.307l0.697,0c0.352,0 0.61,-0.059 0.774,-0.178c0.164,-0.12 0.33,-0.396 0.498,-0.83l0.129,-0.351l-2.496,-6.381l1.804,0l1.5,4.26l1.436,-4.26l1.805,0l-2.725,7.272Z" style="fill:#fff;fill-rule:nonzero;"/></g><g id="Layer1"><rect x="58.299" y="88.596" width="83.402" height="48.377" style="fill:none;stroke:#fff;stroke-width:3px;"/><rect x="58.299" y="88.596" width="83.402" height="11.404" style="fill:none;stroke:#fff;stroke-width:3px;"/><rect x="58.299" y="100" width="14.185" height="12.324" style="fill:none;stroke:#fff;stroke-width:1px;"/><rect x="72.484" y="100" width="14.185" height="12.324" style="fill:none;stroke:#fff;stroke-width:1px;"/><rect x="86.669" y="100" width="14.185" height="12.324" style="fill:none;stroke:#fff;stroke-width:1px;"/><rect x="100" y="100" width="14.185" height="12.324" style="fill:none;stroke:#fff;stroke-width:1px;"/><rect x="58.299" y="112.324" width="14.185" height="12.324" style="fill:none;stroke:#fff;stroke-width:1px;"/><rect x="58.299" y="124.648" width="14.185" height="12.324" style="fill:none;stroke:#fff;stroke-width:1px;"/><rect x="72.484" y="112.324" width="14.185" height="12.324" style="fill:none;stroke:#fff;stroke-width:1px;"/><rect x="72.484" y="124.648" width="14.185" height="12.324" style="fill:none;stroke:#fff;stroke-width:1px;"/><rect x="86.669" y="112.324" width="14.185" height="12.324" style="fill:none;stroke:#fff;stroke-width:1px;"/><rect x="86.669" y="124.648" width="14.185" height="12.324" style="fill:none;stroke:#fff;stroke-width:1px;"/><rect x="100" y="112.324" width="14.185" height="12.324" style="fill:none;stroke:#fff;stroke-width:1px;"/><rect x="100" y="124.648" width="14.185" height="12.324" style="fill:none;stroke:#fff;stroke-width:1px;"/><rect x="114.185" y="100.46" width="13.796" height="16.839" style="fill:none;stroke:#fff;stroke-width:1px;"/><rect x="127.905" y="100.46" width="13.796" height="16.839" style="fill:none;stroke:#fff;stroke-width:1px;"/><rect x="127.905" y="117.299" width="13.796" height="19.674" style="fill:none;stroke:#fff;stroke-width:1px;"/><rect x="114.185" y="117.299" width="13.796" height="19.674" style="fill:none;stroke:#fff;stroke-width:1px;"/></g></svg>